PathFileType	4	(X/Y/Z)	C:\Users\Basilio\Documents\Thesis Gigler\squatting_fais\c3dfiles\044\SLS_back_pre4\markers_experimental.trc
DataRate	CameraRate	NumFrames	NumMarkers	Units	OrigDataRate	OrigDataStartFrame	OrigNumFrames
200.000000	200.000000	4	63	mm	200.000000	341	1367
Frame#	Time	FHD			LBHD			RBHD			C7			T10			LSHO			LUUPA			LMUPA			LDUPA			LLEP			LMEP			LUL			LRFIN			RSHO			RUPA1			RMUPA			RDUPA			RLEP			RMEP			RUFIN			LASI			RASI			USACR			LSACR			RSACR			LTHI1			LTHI2			LTHI3			LTHI4			LLFC			LMFC			LTIB1			LTIB2			LTIB3			LTIB4			LLMAL			LMMAL			LHEE			LMT1			LMT2			LMT5			RTHI			RTHI2			RTHI3			RTHI4			RLFC			RMFC			RTIB1			RTIB2			RTIB3			RTIB4			RLMAL			RMMAL			RHEE			RMT1			RMT2			RMT5			RRAD			RUL			CLAV			LRAD			*61			*62			
		X1	Y1	Z1	X2	Y2	Z2	X3	Y3	Z3	X4	Y4	Z4	X5	Y5	Z5	X6	Y6	Z6	X7	Y7	Z7	X8	Y8	Z8	X9	Y9	Z9	X10	Y10	Z10	X11	Y11	Z11	X12	Y12	Z12	X13	Y13	Z13	X14	Y14	Z14	X15	Y15	Z15	X16	Y16	Z16	X17	Y17	Z17	X18	Y18	Z18	X19	Y19	Z19	X20	Y20	Z20	X21	Y21	Z21	X22	Y22	Z22	X23	Y23	Z23	X24	Y24	Z24	X25	Y25	Z25	X26	Y26	Z26	X27	Y27	Z27	X28	Y28	Z28	X29	Y29	Z29	X30	Y30	Z30	X31	Y31	Z31	X32	Y32	Z32	X33	Y33	Z33	X34	Y34	Z34	X35	Y35	Z35	X36	Y36	Z36	X37	Y37	Z37	X38	Y38	Z38	X39	Y39	Z39	X40	Y40	Z40	X41	Y41	Z41	X42	Y42	Z42	X43	Y43	Z43	X44	Y44	Z44	X45	Y45	Z45	X46	Y46	Z46	X47	Y47	Z47	X48	Y48	Z48	X49	Y49	Z49	X50	Y50	Z50	X51	Y51	Z51	X52	Y52	Z52	X53	Y53	Z53	X54	Y54	Z54	X55	Y55	Z55	X56	Y56	Z56	X57	Y57	Z57	X58	Y58	Z58	X59	Y59	Z59	X60	Y60	Z60	X61	Y61	Z61	X62	Y62	Z62	X63	Y63	Z63	

342	1.705	-208.5359802246094	1790.447021484375	-1012.570068359375	-340.5304565429688	1754.38427734375	-1090.084106445313	-385.6251831054689	1740.691040039063	-930.4554443359377	-398.0643310546876	1561.10888671875	-1013.574279785156	-402.3007202148439	1260.110229492188	-996.5640869140627	-307.1846313476563	1579.978881835938	-1156.4794921875	-147.6674346923828	1571.084228515625	-1261.354125976563	-119.2696685791016	1584.418823242188	-1221.725463867188	-79.46469879150392	1572.632568359375	-1265.233520507813	-20.87209510803223	1577.700805664063	-1257.230346679688	-20.91159629821778	1500.144775390625	-1246.544921875	230.011703491211	1614.777221679688	-1128.232299804688	231.306869506836	1630.028076171875	-1025.133178710938	-315.9036560058594	1576.0869140625	-856.6170654296877	-163.4059600830078	1570.874389648438	-752.2606811523439	-134.4551696777344	1585.887451171875	-791.8630371093752	-94.16523742675783	1576.216064453125	-747.5984497070314	-33.33527374267579	1584.42626953125	-756.5446777343751	-28.56369400024415	1503.162353515625	-762.8886108398439	223.6078643798829	1598.469848632813	-987.7329101562502	-237.0257720947266	1055.3525390625	-1082.271484375	-240.5421142578126	1052.585815429688	-865.6074218750002	-404.4992675781251	1114.4765625	-974.8811645507815	-409.9704589843751	1080.85107421875	-999.6503906250002	-411.545379638672	1088.803100585938	-942.8306884765627	-313.5114440917969	812.4039306640627	-1146.136108398438	-271.9110717773438	739.1955566406251	-1142.845581054688	-223.8328857421876	747.3712768554689	-1138.377563476563	-290.8362426757813	684.7286376953126	-1126.2216796875	-256.7639465332032	530.1240234375001	-1106.050659179688	-250.753158569336	530.4438476562501	-983.6775512695315	-247.9915313720704	358.7350158691407	-1019.546447753906	-276.2509460449219	308.6108398437501	-1087.425170898438	-246.8726959228516	308.1093750000001	-1049.56884765625	-272.6282043457032	233.6855773925782	-1014.765014648438	-334.1785583496094	123.3768997192383	-1054.76025390625	-315.2825622558594	132.0607452392578	-969.5557861328127	-398.4007263183595	103.4154434204102	-1005.680908203125	-192.1914367675782	58.57227325439455	-980.8634033203127	-190.5465240478516	60.77659225463869	-1027.704956054688	-226.5330657958985	47.76375579833985	-1075.351684570313	-278.3468017578126	787.0075683593752	-765.3502197265626	-223.0903320312501	747.6176147460939	-756.7767944335939	-192.319808959961	758.3733520507814	-765.1415405273439	-223.1796264648438	663.2936401367189	-764.7745971679689	-205.0392150878907	561.6970214843751	-762.8117065429689	-211.5223999023438	542.4761352539064	-881.5940551757815	-183.0687866210938	429.1350708007814	-773.588073730469	-266.0859985351563	378.3377075195313	-722.6211547851564	-226.2770996093751	362.1667480468751	-735.7142333984376	-225.1807861328126	307.1253967285157	-756.0325317382814	-319.0812683105469	172.2337036132813	-724.4190673828126	-296.2296142578126	166.3951416015625	-806.8468017578127	-381.9035339355469	147.8771514892578	-771.0972900390627	-188.0085906982422	68.2727508544922	-779.8012695312502	-181.7405853271485	67.75946044921876	-742.8801269531251	-225.0006256103516	64.35681915283205	-692.7987670898439	nan	nan	nan	222.5910339355469	1616.140625	-872.9544677734377	nan	nan	nan	nan	nan	nan	nan	nan	nan	nan	nan	nan	
343	1.71	-208.3248596191407	1790.35595703125	-1013.041748046875	-340.3472290039063	1754.46875	-1090.614135742188	-385.519012451172	1740.744995117188	-930.9365844726565	-398.0250549316407	1561.191162109375	-1013.994140625	-402.2859802246095	1260.381103515625	-997.0093383789065	-306.9190673828126	1579.97021484375	-1156.8544921875	-147.4759368896485	1571.026000976563	-1261.810180664063	-119.0604019165039	1584.418823242188	-1222.109008789063	-79.29133605957033	1572.641479492188	-1265.54736328125	-20.73633575439453	1577.69140625	-1257.57421875	-20.5905818939209	1500.194580078125	-1247.0302734375	230.1565856933594	1614.683471679688	-1128.5615234375	231.4593963623047	1629.873168945313	-1025.536987304688	-315.8914794921876	1576.158569335938	-857.1041259765627	-163.3069458007813	1570.85400390625	-752.6884155273439	-134.4685821533203	1585.947265625	-792.3591308593752	-94.06333160400392	1576.288330078125	-748.0406494140626	-33.16818237304688	1584.305908203125	-756.9682617187501	-28.51015090942384	1503.05126953125	-763.2250366210939	224.0790405273438	1598.200439453125	-988.2009277343752	-237.3267669677735	1055.34375	-1082.44140625	-240.6573944091797	1052.722045898438	-865.8696289062502	-404.6175842285157	1114.538696289063	-975.212829589844	-410.1127014160157	1080.934448242188	-999.968200683594	-411.7822265625001	1088.929443359375	-943.132507324219	-313.7878112792969	812.575134277344	-1146.3212890625	-272.1541748046876	739.1797485351564	-1143.06396484375	-224.259994506836	747.3509521484376	-1138.797241210938	-291.2021484375001	684.7979125976564	-1126.425048828125	-257.0531311035157	530.1738281250001	-1106.4072265625	-251.0831756591797	530.8309326171876	-984.309265136719	-248.0518646240235	358.7353515625001	-1019.774291992188	-276.3534240722657	308.5469055175782	-1087.669921875	-247.0283813476563	308.0449218750001	-1049.821411132813	-272.7074279785157	233.574935913086	-1015.01806640625	-334.1264953613282	123.3834075927735	-1054.78662109375	-315.1424255371094	131.9080505371094	-969.5487060546877	-398.378631591797	103.3873443603516	-1005.753479003906	-192.1999816894532	58.55663299560548	-980.877868652344	-190.544677734375	60.66790771484376	-1027.795043945313	-226.7245635986329	48.0857620239258	-1075.25830078125	-278.2711181640626	787.338073730469	-765.5267944335939	-222.9947509765626	748.2040405273439	-757.1198120117189	-192.1376647949219	758.6101684570314	-765.1876220703126	-223.2971954345704	664.0510864257814	-765.4511108398439	-204.7000427246094	561.9045410156251	-762.8931274414064	-211.3083953857422	542.8780517578126	-881.6353149414065	-182.9517364501953	429.3702392578126	-773.5920410156252	-265.7959899902344	378.7710571289063	-722.6651000976564	-226.0494689941407	362.5256042480469	-735.7695312500001	-225.3124542236329	307.7467956542969	-756.2241821289064	-319.3797607421876	172.7196350097657	-724.2514038085939	-296.5599975585938	166.2757873535157	-807.0997314453127	-382.3209533691407	148.063720703125	-770.906433105469	-188.1516723632813	69.1876678466797	-779.994079589844	-181.5902862548828	69.00888824462892	-743.3373413085939	-224.6990814208985	64.8176727294922	-692.6946411132814	nan	nan	nan	222.7606048583985	1615.85009765625	-873.318786621094	nan	nan	nan	nan	nan	nan	nan	nan	nan	nan	nan	nan	
344	1.715	-208.0753021240235	1790.414428710938	-1013.532043457031	-339.9038696289063	1754.68603515625	-1091.16015625	-385.361785888672	1740.796142578125	-931.399597167969	-397.9325561523439	1561.28857421875	-1014.3662109375	-402.254608154297	1260.336059570313	-997.408142089844	-306.6549377441407	1580.029541015625	-1157.293701171875	-147.332275390625	1571.025390625	-1262.270751953125	-118.7370300292969	1584.465942382813	-1222.506591796875	-79.22386932373048	1572.683837890625	-1265.859619140625	-20.50802421569825	1577.701171875	-1257.950927734375	-20.3409481048584	1500.33056640625	-1247.390625	230.3302307128907	1614.660522460938	-1128.947875976563	231.6295013427735	1629.785034179688	-1025.884521484375	-315.8020324707032	1576.262817382813	-857.559020996094	-163.2513275146485	1570.813720703125	-753.2830810546876	-134.4258422851563	1585.924072265625	-792.819519042969	-94.00799560546876	1576.227783203125	-748.4910278320314	-33.12268066406251	1584.284057617188	-757.3841552734376	-28.53526687622071	1503.080200195313	-763.6763916015626	224.6291046142579	1598.047485351563	-988.6517333984377	-237.3313598632813	1055.369384765625	-1082.776245117188	-240.7656555175782	1052.83154296875	-866.2678833007815	-404.7059631347657	1114.615234375	-975.5052490234377	-410.3597717285157	1081.149780273438	-1000.198791503906	-411.8979797363282	1088.865844726563	-943.3916015625002	-314.3222045898438	812.746520996094	-1146.216186523438	-272.4613037109376	739.1569213867189	-1143.3251953125	-224.5557861328126	747.4094848632814	-1139.1806640625	-291.5797119140626	684.8984985351564	-1126.617065429688	-257.3606262207032	530.1830444335939	-1106.735961914063	-251.1736145019532	530.8524169921876	-984.591247558594	-248.2437438964844	358.6957702636719	-1020.057800292969	-276.4432983398438	308.5786437988282	-1087.8291015625	-247.2158966064454	307.9340209960938	-1050.084106445313	-272.9127807617188	233.6313476562501	-1015.154846191406	-334.1996765136719	123.3342437744141	-1054.831909179688	-315.1033020019532	131.8827819824219	-969.6164550781252	-398.3467407226564	103.3899307250977	-1005.837829589844	-192.2007904052735	58.58742141723634	-980.9446411132815	-190.4873046875	60.60121536254884	-1027.84765625	-226.6989288330079	47.89431381225587	-1075.33349609375	-278.0692443847657	787.5574951171877	-765.6697998046876	-222.7803039550782	748.4316406250001	-757.2370605468751	-192.0862121582032	759.0820922851564	-765.2485351562501	-222.8396453857422	664.4547119140626	-765.4713745117189	-204.1584167480469	562.2955322265626	-763.0391235351564	-210.9930114746094	543.1895141601564	-881.670593261719	-182.7472229003907	429.6791076660157	-773.830505371094	-265.6729736328126	379.1547546386719	-722.6118164062501	-225.9220123291016	362.9569702148438	-736.0617675781251	-225.2355957031251	307.9473876953126	-756.4799804687501	-319.7738037109376	173.3208312988282	-724.3410034179689	-297.2556152343751	166.7366333007813	-807.2190551757815	-382.8315429687501	148.2260437011719	-770.6633911132815	-188.1088562011719	70.25315856933595	-780.614685058594	-181.7833862304688	69.78081512451173	-743.4101562500001	-224.6642303466797	66.20291900634767	-692.8928833007814	nan	nan	nan	222.9066772460938	1615.602783203125	-873.6653442382815	nan	nan	nan	nan	nan	nan	nan	nan	nan	nan	nan	nan	
345	1.72	-208.1353759765626	1790.465087890625	-1013.845642089844	-340.4586791992188	1754.075927734375	-1091.550659179688	-385.3571777343751	1740.854614257813	-931.932312011719	-397.7882080078126	1561.316040039063	-1014.879699707031	-402.3225708007814	1260.299194335938	-997.7088012695315	-306.4411926269532	1580.103637695313	-1157.836181640625	-147.0981750488282	1571.063354492188	-1262.701171875	-118.5378494262696	1584.362060546875	-1222.865112304688	-78.87065887451173	1572.703369140625	-1266.194091796875	-20.35039329528809	1577.610717773438	-1258.325073242188	-20.25783920288086	1500.128051757813	-1247.693725585938	230.5123596191407	1614.7529296875	-1129.446533203125	232.3329620361329	1629.357666015625	-1026.859252929688	-315.3015747070313	1576.038940429688	-857.9908447265627	-163.171142578125	1570.74072265625	-753.5197143554689	-134.3265838623047	1585.898803710938	-793.1701660156252	-93.8584671020508	1576.153564453125	-748.9519653320314	-33.17509841918946	1584.27880859375	-757.7520141601564	-28.58889198303223	1503.064086914063	-764.2236938476564	224.7562408447266	1597.920776367188	-989.0389404296877	-237.6062774658204	1055.369750976563	-1083.038208007813	-240.8443756103516	1052.923095703125	-866.5435180664065	-404.7823486328126	1114.701538085938	-975.799011230469	-410.9324340820314	1081.4013671875	-1000.401000976563	-412.1570739746095	1088.875732421875	-943.6964111328127	-314.7006530761719	812.8425903320315	-1146.450927734375	-272.7938842773438	739.1191406250001	-1143.6376953125	-224.8052368164063	747.2781372070314	-1139.453735351563	-291.9709472656251	684.9209594726564	-1126.81005859375	-257.7396240234376	530.2138061523439	-1107.066772460938	-251.3703308105469	530.8758544921876	-984.784362792969	-248.2484130859376	358.8035583496094	-1020.201293945313	-276.5626831054688	308.5972900390626	-1088.066528320313	-247.4544830322266	307.9179382324219	-1050.2939453125	-272.9916381835938	233.5920562744141	-1015.318420410156	-334.3074035644532	123.3266143798828	-1054.924194335938	-315.1863403320313	132.1034088134766	-969.6517333984377	-398.3990478515626	103.4921875	-1005.804809570313	-192.2119445800782	58.57456207275392	-980.935485839844	-190.5052642822266	60.63139724731447	-1027.838623046875	-226.7164306640626	47.87553405761719	-1075.389892578125	-277.9880065917969	787.680358886719	-765.8456420898439	-222.6639251708985	748.6248779296876	-757.2577514648439	-191.9402770996094	759.4573974609376	-765.2843017578126	-222.5086822509766	664.7171630859376	-765.5308227539064	-203.8777160644532	562.4915771484376	-763.1269531250001	-210.8092041015626	543.4936523437501	-881.724060058594	-182.623046875	429.9282531738282	-773.954772949219	-265.6417541503907	379.7638854980469	-722.7078247070314	-225.9567871093751	363.4340209960938	-736.2047119140626	-225.3920440673829	308.3664855957032	-756.6218261718751	-320.0774841308594	173.7710723876953	-724.4326171875001	-297.8750915527344	167.183578491211	-807.258483886719	-383.5353698730469	148.5449829101563	-770.442565917969	-188.3225860595703	71.13156127929689	-780.6995239257815	-181.7322845458985	71.07239532470705	-743.8056030273439	-224.5390777587891	66.94370269775392	-692.8261718750001	nan	nan	nan	222.9495086669922	1615.99267578125	-874.3532714843752	nan	nan	nan	nan	nan	nan	nan	nan	nan	nan	nan	nan	
